<svg xmlns="http://www.w3.org/2000/svg" width="24" height="24" viewBox="0 0 24 24">
  <g id="Basketball" transform="translate(279.81 -415.666)">
    <path id="Path_2447" data-name="Path 2447" d="M-273.247,419.437a30.083,30.083,0,0,1,5.431.719,17.363,17.363,0,0,0,.839-4.075A12.048,12.048,0,0,0-273.247,419.437Z" transform="translate(-3.096 -0.195)" fill="#16b7ff"/>
    <path id="Path_2448" data-name="Path 2448" d="M-273.7,443.494a94.53,94.53,0,0,1,4.437-10.831c.667-1.388,1.379-2.787,2.119-4.162-.68-.241-1.33-.447-1.978-.626l-.055-.015a18.727,18.727,0,0,1-9.325,9.554A12.041,12.041,0,0,0-273.7,443.494Z" transform="translate(-0.617 -5.752)" fill="#16b7ff"/>
    <path id="Path_2449" data-name="Path 2449" d="M-257.353,421.14c.952-1.692,1.934-3.315,2.924-4.834a11.993,11.993,0,0,0-3.859-.64q-.216,0-.43.009a19.229,19.229,0,0,1-.908,4.728C-258.864,420.62-258.1,420.867-257.353,421.14Z" transform="translate(-9.522 0)" fill="#16b7ff"/>
    <path id="Path_2450" data-name="Path 2450" d="M-277.806,425.828h0a11.968,11.968,0,0,0-2,6.628,12.1,12.1,0,0,0,.21,2.216,16.951,16.951,0,0,0,8.009-8.214A26.519,26.519,0,0,0-277.806,425.828Z" transform="translate(0 -4.79)" fill="#16b7ff"/>
    <path id="Path_2451" data-name="Path 2451" d="M-242.477,440.011a15.685,15.685,0,0,0-5.988-6.085,16.777,16.777,0,0,0-1.815,7.628,16.97,16.97,0,0,0,1.019,5.795A11.964,11.964,0,0,0-242.477,440.011Z" transform="translate(-13.931 -8.614)" fill="#16b7ff"/>
    <path id="Path_2452" data-name="Path 2452" d="M-258.563,446.223a18.693,18.693,0,0,1-1.109-6.366,18.831,18.831,0,0,1,2.054-8.535c-.677-.359-1.378-.692-2.089-1-.767,1.416-1.5,2.857-2.189,4.286a92.441,92.441,0,0,0-4.451,10.923,11.918,11.918,0,0,0,4.889,1.046A12.044,12.044,0,0,0-258.563,446.223Z" transform="translate(-6.351 -6.915)" fill="#16b7ff"/>
    <path id="Path_2453" data-name="Path 2453" d="M-239.453,431.7a12.045,12.045,0,0,0-2.623-7.476,17,17,0,0,0-3.06,3.545,19.592,19.592,0,0,1,5.63,5.046C-239.472,432.45-239.453,432.076-239.453,431.7Z" transform="translate(-16.357 -4.039)" fill="#16b7ff"/>
    <path id="Path_2454" data-name="Path 2454" d="M-252.1,423.039c.71.307,1.416.647,2.107,1.014a18.827,18.827,0,0,1,3.4-3.97,12,12,0,0,0-2.591-1.828C-250.175,419.753-251.154,421.36-252.1,423.039Z" transform="translate(-13.07 -1.221)" fill="#16b7ff"/>
  </g>
</svg>
