<svg xmlns="http://www.w3.org/2000/svg" width="24" height="16.018" viewBox="0 0 24 16.018">
  <path id="Football" d="M-143.628,469.34a14.707,14.707,0,0,0-8.422-2.661,14.79,14.79,0,0,0-8.421,2.619c-2.155,1.532-3.562,3.488-3.579,5.391.017,1.9,1.424,3.859,3.579,5.391a14.783,14.783,0,0,0,8.421,2.618,14.7,14.7,0,0,0,8.422-2.66c2.154-1.546,3.559-3.494,3.577-5.349C-140.069,472.832-141.474,470.886-143.628,469.34Zm-.574,9.891a13.714,13.714,0,0,1-7.849,2.478,13.8,13.8,0,0,1-7.851-2.439c-2.008-1.407-3.177-3.207-3.16-4.581-.017-1.374,1.152-3.175,3.16-4.582a13.8,13.8,0,0,1,7.851-2.438,13.717,13.717,0,0,1,7.849,2.477c2.01,1.419,3.181,3.229,3.162,4.542C-141.02,476-142.191,477.812-144.2,479.231Zm-4.521-8.97h-.99v1.686h-1.844v-1.686h-.989v1.686h-1.844v-1.686h-.99v1.686h-1.935v.989h1.935v1.684h.99v-1.684h1.844v1.684h.989v-1.684h1.844v1.684h.99v-1.684h1.937v-.989h-1.937Z" transform="translate(164.051 -466.679)" fill="#16b7ff"/>
</svg>
