<svg xmlns="http://www.w3.org/2000/svg" width="24" height="18.846" viewBox="0 0 24 18.846">
  <path id="Golf" d="M-448.433,515.767l-2.224-.932,1.161-2.772,2.225.932Zm-16.593,15.143a4,4,0,0,1-4-4,4,4,0,0,1,4-4,4,4,0,0,1,4,4A4,4,0,0,1-465.026,530.909Zm15.952-13.4-4.16,9.669c-1.08,1.023-3.362,1.55-5.944,1.539-.249,0-.5,0-.754-.013a5.375,5.375,0,0,0,.312-1.8,5.406,5.406,0,0,0-5.406-5.407,5.408,5.408,0,0,0-5.287,4.274c-.043-.04-.092-.078-.13-.117a3.025,3.025,0,0,1-.829-2.228,7.6,7.6,0,0,1,1.38-4.01,3.934,3.934,0,0,1,2.226-1.869.263.263,0,0,1,.042,0,9.425,9.425,0,0,1,2.706.923c3.845,1.73,9.707,5.234,9.717,5.236l.584.35.272-.624,3-6.9Z" transform="translate(471.271 -512.063)" fill="#16b7ff"/>
</svg>
