<svg xmlns="http://www.w3.org/2000/svg" width="24" height="24" viewBox="0 0 24 24">
  <g id="Ping-Pong" transform="translate(225.765 -266.448)">
    <g id="Group_279" data-name="Group 279" transform="translate(-221.075 266.448)">
      <path id="Path_2461" data-name="Path 2461" d="M-199.459,268.873a8.7,8.7,0,0,0-6.241-2.425h-.009a10.905,10.905,0,0,0-7.59,3.079,10.862,10.862,0,0,0-3.047,6.963l9.269,9.269a10.867,10.867,0,0,0,6.963-3.048h0a10.911,10.911,0,0,0,3.077-7.6A8.693,8.693,0,0,0-199.459,268.873ZM-201.18,280.4a3.806,3.806,0,0,1-2.693,1.116h-.005a3.8,3.8,0,0,1-2.7-1.116,3.8,3.8,0,0,1-1.115-2.7,3.791,3.791,0,0,1,1.116-2.7h0a3.81,3.81,0,0,1,2.7-1.117,3.807,3.807,0,0,1,2.7,1.117,3.809,3.809,0,0,1,1.118,2.7A3.81,3.81,0,0,1-201.18,280.4Z" transform="translate(216.346 -266.448)" fill="#16b7ff"/>
    </g>
    <path id="Path_2462" data-name="Path 2462" d="M-220.151,293.579l.185.366-5.8,5.8,2.958,2.956,5.8-5.8.368.185a8.965,8.965,0,0,0,2.724.845L-221,290.854A8.986,8.986,0,0,0-220.151,293.579Z" transform="translate(0 -12.252)" fill="#16b7ff"/>
  </g>
</svg>
