<svg xmlns="http://www.w3.org/2000/svg" width="24" height="24" viewBox="0 0 24 24">
  <g id="Racketball" transform="translate(377.937 -420.595)">
    <path id="Path_2458" data-name="Path 2458" d="M-364.94,420.6l6.412,16.5-.227.228-9.481-13.432Zm-4.22,4.219,9.481,13.432-.606.606-13.432-9.479Zm-8.777,8.777,3.295-3.295,13.432,9.479-.227.227Zm23.045,10.05a3.252,3.252,0,0,1-2.3.953,3.247,3.247,0,0,1-2.3-.954l-1.876-1.876,4.608-4.609,1.878,1.876a3.248,3.248,0,0,1,.953,2.3A3.261,3.261,0,0,1-354.892,443.642Z" fill="#16b7ff"/>
  </g>
</svg>
