<svg xmlns="http://www.w3.org/2000/svg" width="24" height="24.137" viewBox="0 0 24 24.137">
  <g id="Soccer" transform="translate(179.09 -347.784)">
    <path id="Path_2437" data-name="Path 2437" d="M-179.066,364.852l.894,1.988,2.283.18,3.672-5.78-1.37-4.11-3.289.029a11.983,11.983,0,0,0-2.213,6.965C-179.09,364.369-179.08,364.611-179.066,364.852Z" transform="translate(0 -4.266)" fill="#16b7ff"/>
    <path id="Path_2438" data-name="Path 2438" d="M-157.274,389.62l-1.606-1.459H-166.1l-.783.909A12.219,12.219,0,0,0-157.274,389.62Z" transform="translate(-5.571 -18.431)" fill="#16b7ff"/>
    <path id="Path_2439" data-name="Path 2439" d="M-161.624,366.856l-5.005.063-3.322,5.226,2.554,4.43h6.863l2.389-4.1Z" transform="translate(-4.171 -8.706)" fill="#16b7ff"/>
    <path id="Path_2440" data-name="Path 2440" d="M-136.129,377.4l-.237.545.008.051C-136.276,377.8-136.2,377.6-136.129,377.4Z" transform="translate(-19.502 -13.52)" fill="#16b7ff"/>
    <path id="Path_2441" data-name="Path 2441" d="M-145.72,383.578l1.948-1.989-.363-2.419-2.8.066-2.118,3.636,1.809,1.754A12.165,12.165,0,0,0-145.72,383.578Z" transform="translate(-13.713 -14.327)" fill="#16b7ff"/>
    <path id="Path_2442" data-name="Path 2442" d="M-172.753,383.738l.76-.884-2.237-3.88-1.7-.135.281,1.844A12.084,12.084,0,0,0-172.753,383.738Z" transform="translate(-1.442 -14.176)" fill="#16b7ff"/>
    <path id="Path_2443" data-name="Path 2443" d="M-153.438,351.1l4.591-.214a11.983,11.983,0,0,0-8.018-3.1l-.114.837Z" transform="translate(-10.093)" fill="#16b7ff"/>
    <path id="Path_2444" data-name="Path 2444" d="M-165.255,354.753l1.22,3.661,4.108-.052,1.38-3.506-3.144-2.2Z" transform="translate(-6.315 -2.225)" fill="#16b7ff"/>
    <path id="Path_2445" data-name="Path 2445" d="M-165.619,348.047A12.087,12.087,0,0,0-172,351.14l2.278-.02,4.006-2.353Z" transform="translate(-3.235 -0.12)" fill="#16b7ff"/>
    <path id="Path_2446" data-name="Path 2446" d="M-144.959,356.773l-5.49.253-1.57,3.988,3.7,5.979,3.482-.081,2.1-4.844A12.06,12.06,0,0,0-144.959,356.773Z" transform="translate(-12.357 -4.103)" fill="#16b7ff"/>
  </g>
</svg>
