<svg xmlns="http://www.w3.org/2000/svg" width="24" height="24.001" viewBox="0 0 24 24.001">
  <g id="Softball" transform="translate(274.696 -543.283)">
    <path id="Path_2455" data-name="Path 2455" d="M-259.551,567.284a11.915,11.915,0,0,0,3.676-.577l-.11-.07c-.163-.1-.323-.212-.481-.323l-.058-.04c-.083-.058-.166-.116-.248-.176-.163-.12-.321-.246-.478-.373l-.093-.074c-.058-.047-.117-.093-.174-.142-.173-.146-.339-.3-.5-.453l-.072-.065c-.043-.038-.086-.078-.128-.118a14.125,14.125,0,0,1-1.27-1.412c-.035-.045-.069-.091-.1-.138l-.064-.087c-.133-.177-.266-.356-.391-.54-.043-.064-.085-.129-.126-.195l-.067-.105c-.106-.166-.212-.331-.31-.5-.053-.091-.1-.183-.153-.275l-.037-.067c-.089-.164-.177-.328-.26-.495-.06-.123-.117-.246-.174-.37q-.113-.247-.218-.5-.079-.192-.152-.387-.1-.257-.182-.517c-.044-.132-.087-.264-.126-.4-.053-.177-.1-.357-.146-.539l-.019-.074c-.028-.108-.055-.216-.079-.325-.042-.19-.076-.382-.11-.575l-.02-.108c-.018-.092-.034-.184-.048-.277-.031-.215-.053-.433-.074-.651l-.012-.114c-.009-.072-.017-.144-.022-.217-.025-.343-.038-.679-.038-1,0-.1,0-.2,0-.3.007-.32.026-.631.054-.94.005-.065.014-.13.022-.194l.015-.122c.026-.223.048-.414.078-.6.014-.088.031-.175.048-.263l.022-.112c.033-.176.066-.351.106-.523.026-.115.055-.23.086-.345.054-.209.1-.372.147-.532.039-.131.081-.262.124-.391q.078-.234.164-.466c.049-.127.1-.254.148-.379.063-.153.129-.3.2-.454s.116-.257.169-.363c.074-.151.152-.3.232-.449l.047-.089c.045-.083.089-.167.135-.249.083-.146.172-.289.261-.432l.082-.133c.039-.064.078-.128.118-.19.131-.2.269-.394.412-.586l.1-.135c.177-.234.361-.461.551-.683.041-.047.083-.093.125-.139l.073-.08c.131-.146.262-.292.4-.433.058-.06.118-.117.178-.176l.072-.068c.127-.125.256-.249.389-.369.079-.072.159-.141.241-.21.168-.144.3-.256.436-.364.1-.078.2-.154.3-.23.136-.1.275-.2.415-.3l.019-.013a12.02,12.02,0,0,0-2.844-.4c-.09,0-.177,0-.263,0a11.892,11.892,0,0,0-8.382,3.436l.044.084c.078.141.152.283.226.429q.134.266.258.542c.067.148.134.3.2.448.079.19.153.385.226.58s.121.324.168.466c.068.2.13.41.192.618l.031.1c.037.124.074.248.107.375.052.194.1.392.141.591l.05.222c.025.109.05.219.072.33.039.208.072.418.1.629l.038.239c.017.105.035.21.048.317.027.214.046.431.065.648l.027.286c.01.1.02.191.026.287.021.332.029.67.033,1.01l0,.1c0,.045,0,.091,0,.137,0,.142,0,.284,0,.428-.009.394-.031.8-.065,1.215-.007.081-.016.161-.026.241l-.017.146c-.027.266-.055.533-.093.8-.015.1-.033.2-.051.3l-.039.223c-.036.21-.072.42-.115.626-.023.114-.051.226-.078.337l-.033.134c-.05.214-.1.427-.158.636-.036.126-.073.249-.111.371l-.032.106c-.061.2-.122.4-.189.588-.046.133-.1.264-.146.395l-.029.075c-.07.184-.141.368-.217.547-.065.155-.134.306-.2.457-.08.173-.159.343-.244.509-.074.149-.152.295-.231.439l-.036.068a11.909,11.909,0,0,0,8.184,3.488Z" transform="translate(-3.138)" fill="#16b7ff"/>
    <path id="Path_2456" data-name="Path 2456" d="M-272.092,553.265c-.025-.062-.05-.125-.076-.186q-.108-.245-.225-.48a11.871,11.871,0,0,0-2.3,6.794h0c0,.09,0,.179,0,.265a11.842,11.842,0,0,0,2.253,6.974c.071-.143.141-.288.207-.437.03-.069.059-.14.088-.211l.047-.115c.075-.181.149-.362.218-.549.031-.086.061-.173.09-.26l.033-.1c.063-.186.124-.375.181-.566.037-.123.071-.248.106-.374.053-.2.1-.4.15-.6.029-.124.056-.249.083-.374.044-.216.083-.436.12-.658l.016-.1c.014-.084.029-.168.04-.252.037-.257.066-.517.091-.779l.028-.263c.029-.356.049-.718.057-1.084,0-.132,0-.26,0-.389,0-.372-.013-.739-.036-1.1,0-.07-.012-.139-.018-.209l-.013-.142c-.02-.243-.041-.486-.072-.724-.011-.092-.026-.183-.039-.273l-.019-.126c-.032-.216-.066-.431-.106-.643-.026-.135-.055-.269-.084-.4-.044-.2-.091-.405-.142-.6q-.05-.2-.1-.387c-.057-.2-.117-.394-.181-.587l-.027-.079c-.03-.092-.06-.185-.093-.275-.072-.2-.15-.4-.23-.591Z" transform="translate(0 -4.367)" fill="#16b7ff"/>
    <path id="Path_2457" data-name="Path 2457" d="M-247.676,566.594c.123.068.247.129.371.191l.148.073a12.04,12.04,0,0,0,6.166-10.226l0-.268a12.062,12.062,0,0,0-6.7-10.761l-.1.055c-.121.067-.241.134-.359.205s-.2.127-.305.192c-.137.088-.253.164-.367.242s-.206.148-.308.224c-.125.092-.229.171-.332.252-.081.064-.16.132-.24.2l-.095.08c-.091.077-.183.155-.271.235s-.158.149-.236.224l-.09.087c-.082.079-.164.158-.242.24s-.144.154-.215.232l-.084.093c-.079.087-.158.173-.234.262s-.133.163-.2.245l-.1.125c-.066.082-.132.165-.194.249s-.123.172-.182.259l-.1.141c-.057.083-.115.166-.171.252s-.11.179-.163.268l-.1.172c-.048.08-.1.16-.141.242-.055.1-.106.2-.156.3l-.082.16c-.043.082-.086.165-.125.249s-.088.2-.13.3l-.086.2c-.035.079-.069.157-.1.237-.04.105-.077.213-.114.321l-.076.22c-.026.073-.052.146-.075.219-.037.118-.068.237-.1.356l-.057.211c-.02.071-.04.143-.057.215-.031.128-.055.257-.08.386l-.045.226c-.013.064-.026.128-.037.193-.029.177-.049.357-.07.537l-.018.14c-.007.048-.014.1-.018.146q-.039.418-.048.842l0,.262c0,.157.008.311.016.466l.01.253c0,.056,0,.111.007.166.008.117.023.231.037.346l.033.286c.008.082.016.164.028.245.016.1.037.2.057.305l.054.286c.016.089.032.177.052.265s.049.195.076.292l.073.277c.023.089.046.177.073.264s.065.2.1.294l.082.235c.032.095.064.189.1.281s.081.2.124.292l.093.217c.039.092.078.184.121.274s.088.177.134.265l.115.221c.047.09.093.181.142.269s.1.177.159.265l.108.176c.057.1.115.19.175.281s.126.183.192.273l.109.153c.062.088.125.177.191.262s.138.172.208.256l.118.145c.07.084.139.169.212.252s.165.179.249.267l.11.115c.073.078.147.156.224.231s.172.163.259.242l.13.12c.078.071.156.143.237.212.1.083.2.164.3.244l.057.046c.1.081.2.163.308.24s.213.152.32.226l.057.039c.108.075.215.149.326.219s.249.152.374.227S-247.791,566.532-247.676,566.594Z" transform="translate(-9.707 -1.088)" fill="#16b7ff"/>
  </g>
</svg>
