<svg xmlns="http://www.w3.org/2000/svg" width="24" height="23.983" viewBox="0 0 24 23.983">
  <path id="Tennis" d="M-220.089,202.658c-.235-.186-.477-.348-.613-.48l0,0-.02-.018c-.133-.131-.3-.385-.5-.632a1.265,1.265,0,0,0-.943-.579.784.784,0,0,0-.626.311,5.078,5.078,0,0,0-.428,1.339,3.881,3.881,0,0,0-.29,1.194,1.168,1.168,0,0,0,.182.648v.038l.149.147a1.147,1.147,0,0,0,.8.322h.021a3.954,3.954,0,0,0,1.2-.289c.258-.089.563-.131.864-.21a1.351,1.351,0,0,0,.474-.214.786.786,0,0,0,.312-.626A1.265,1.265,0,0,0-220.089,202.658Zm-1.392,1.049a3.358,3.358,0,0,1-.876.238c-.083,0-.089-.009-.112-.028l0,0c-.029-.035-.032-.029-.039-.123a3.343,3.343,0,0,1,.237-.871,8.426,8.426,0,0,0,.208-.842c.139.173.362.477.6.748h0l.017.02.017.017v0h0v0a8.316,8.316,0,0,0,.715.572c.027.022.052.042.074.062A8.239,8.239,0,0,0-221.481,203.707Zm12.979-13.769c-1.767-1.77-3.731-2.986-6.037-2.987a7.129,7.129,0,0,0-2.031.305,8.679,8.679,0,0,0-5.968,5.267,20.44,20.44,0,0,0-1.326,6.994c-.458,3.938-1.283,4.8-1.834,5.371-.624.623-3.483,3.523-3.6,3.643l-.05.05-.034.06a1.153,1.153,0,0,0-.129.552,1.671,1.671,0,0,0,.548,1.178l.354-.353-.354.354a1.738,1.738,0,0,0,1.2.561h.021a1.206,1.206,0,0,0,.5-.1l.079-.038.061-.062c.119-.119,3.02-2.978,3.644-3.6.567-.549,1.436-1.374,5.373-1.832a20.431,20.431,0,0,0,6.995-1.326,8.684,8.684,0,0,0,5.267-5.967,7.144,7.144,0,0,0,.3-2.031C-205.514,193.668-206.732,191.7-208.5,189.938Zm1.725,7.786a7.662,7.662,0,0,1-4.7,5.331,19.638,19.638,0,0,1-6.712,1.252c-4.024.436-5.291,1.425-5.969,2.119-.565.566-3.019,2.984-3.549,3.509h-.033a.731.731,0,0,1-.517-.27c-.244-.25-.251-.392-.256-.472a.3.3,0,0,1,0-.038c.5-.5,2.951-2.992,3.52-3.56.693-.676,1.684-1.943,2.121-5.966a19.619,19.619,0,0,1,1.253-6.712,7.655,7.655,0,0,1,5.332-4.7,6.1,6.1,0,0,1,1.747-.264c1.931,0,3.647,1.013,5.331,2.7s2.7,3.4,2.7,5.331A6.11,6.11,0,0,1-206.778,197.724Zm-9.354-6.41a.847.847,0,0,0,0-1.2.847.847,0,0,0-1.2,0,.847.847,0,0,0,0,1.2A.847.847,0,0,0-216.132,191.315Zm1.863,1.863a.848.848,0,0,0,0-1.2.848.848,0,0,0-1.2,0,.848.848,0,0,0,0,1.2A.849.849,0,0,0-214.269,193.178Zm1.863.665a.847.847,0,0,0-1.2,0,.845.845,0,0,0,0,1.2.846.846,0,0,0,1.2,0A.847.847,0,0,0-212.406,193.843Zm.665,1.862a.847.847,0,0,0,0,1.2.846.846,0,0,0,1.2,0,.849.849,0,0,0,0-1.2A.849.849,0,0,0-211.74,195.705Zm1.862,1.864a.847.847,0,0,0,0,1.2.847.847,0,0,0,1.2,0,.847.847,0,0,0,0-1.2A.846.846,0,0,0-209.878,197.569Zm-6.882-3.774a.846.846,0,0,0,0-1.2.847.847,0,0,0-1.2,0,.846.846,0,0,0,0,1.2A.848.848,0,0,0-216.76,193.795Zm1.863.665a.847.847,0,0,0-1.2,0,.847.847,0,0,0,0,1.2.848.848,0,0,0,1.2,0A.848.848,0,0,0-214.9,194.46Zm.665,1.862a.847.847,0,0,0,0,1.2.845.845,0,0,0,1.2,0,.846.846,0,0,0,0-1.2A.848.848,0,0,0-214.232,196.321Zm1.863,1.864a.847.847,0,0,0,0,1.2.848.848,0,0,0,1.2,0,.848.848,0,0,0,0-1.2A.847.847,0,0,0-212.369,198.185Zm-1.282-7.5a.847.847,0,0,0,0-1.2.848.848,0,0,0-1.2,0,.848.848,0,0,0,0,1.2A.847.847,0,0,0-213.652,190.687Zm1.863,1.862a.846.846,0,0,0,0-1.2.847.847,0,0,0-1.2,0,.847.847,0,0,0,0,1.2A.846.846,0,0,0-211.789,192.549Zm1.863,1.863a.847.847,0,0,0,0-1.2.848.848,0,0,0-1.2,0,.847.847,0,0,0,0,1.2A.848.848,0,0,0-209.926,194.412Zm.666,1.863a.847.847,0,0,0,1.2,0,.848.848,0,0,0,0-1.2.847.847,0,0,0-1.2,0A.846.846,0,0,0-209.261,196.275Zm-9.98-1.852a.846.846,0,0,0,0-1.2.846.846,0,0,0-1.2,0,.845.845,0,0,0,0,1.2A.846.846,0,0,0-219.241,194.423Zm1.863,1.862a.847.847,0,0,0,0-1.2.848.848,0,0,0-1.2,0,.847.847,0,0,0,0,1.2A.845.845,0,0,0-217.378,196.285Zm.666.666a.847.847,0,0,0,0,1.2.846.846,0,0,0,1.2,0,.848.848,0,0,0,0-1.2A.848.848,0,0,0-216.712,196.95Zm1.864,1.863a.845.845,0,0,0,0,1.2.845.845,0,0,0,1.2,0,.845.845,0,0,0,0-1.2A.846.846,0,0,0-214.848,198.813Zm1.863,1.863a.846.846,0,0,0,0,1.2.846.846,0,0,0,1.2,0,.847.847,0,0,0,0-1.2A.846.846,0,0,0-212.985,200.676Zm-6.883-3.773a.847.847,0,0,0,0-1.2.848.848,0,0,0-1.2,0,.847.847,0,0,0,0,1.2A.847.847,0,0,0-219.869,196.9Zm.665.666a.847.847,0,0,0,0,1.2.849.849,0,0,0,1.2,0,.846.846,0,0,0,0-1.2A.845.845,0,0,0-219.2,197.568Zm1.862,1.862a.848.848,0,0,0,0,1.2.848.848,0,0,0,1.2,0,.845.845,0,0,0,0-1.2A.847.847,0,0,0-217.341,199.43Zm1.864,1.863a.846.846,0,0,0,0,1.2.847.847,0,0,0,1.2,0,.847.847,0,0,0,0-1.2A.847.847,0,0,0-215.478,201.293Zm-5.009-1.9a.846.846,0,0,0,0-1.2.847.847,0,0,0-1.2,0,.848.848,0,0,0,0,1.2A.847.847,0,0,0-220.486,199.393Zm.666.666a.847.847,0,0,0,0,1.2.849.849,0,0,0,1.2,0,.847.847,0,0,0,0-1.2A.846.846,0,0,0-219.821,200.059Zm1.864,1.863a.845.845,0,0,0,0,1.2.847.847,0,0,0,1.2,0,.847.847,0,0,0,0-1.2A.847.847,0,0,0-217.957,201.921Z" transform="translate(229.514 -186.951)" fill="#16b7ff"/>
</svg>
