<svg xmlns="http://www.w3.org/2000/svg" width="24" height="23.962" viewBox="0 0 24 23.962">
  <g id="Volleyball" transform="translate(380.088 -277.211)">
    <path id="Path_2459" data-name="Path 2459" d="M-357.344,294.482c-.223-.121-.465-.252-.737-.4l-.014-.008c-2.207-1.212-5.909-3.309-9.7-5.5,0-1.794.018-3.568.046-5.167a66.557,66.557,0,0,1,7.276,4.377,27.878,27.878,0,0,1,2.926,2.3,7.075,7.075,0,0,1,.8.862,1.78,1.78,0,0,1,.181.285.764.764,0,0,1,.037.092.7.7,0,0,0,.163.368A11.916,11.916,0,0,1-357.344,294.482Zm-17.872,4.321a69.216,69.216,0,0,0,12.086-5.933c1.3.739,2.487,1.4,3.478,1.955-4.426,3.458-10.774,5.322-13.2,5.352A12,12,0,0,1-375.216,298.8Zm-1.754-5.609c-.111-1.322-.169-2.711-.169-4.1a39.331,39.331,0,0,1,.85-8.652,12.019,12.019,0,0,1,2.583-1.859,20,20,0,0,0-.656,3.15,56.944,56.944,0,0,0-.434,7.361c0,.922.022,1.84.057,2.742C-375.6,292.35-376.347,292.807-376.97,293.194Zm3.615-2.188c-.018-.634-.03-1.273-.03-1.915a55.462,55.462,0,0,1,.423-7.171,9.668,9.668,0,0,1,1.12-4.011.691.691,0,0,0,.087-.154,12,12,0,0,1,2.908-.541,34.75,34.75,0,0,0-.265,4.161c-.008.275-.015.559-.022.851v.007c-.044,1.883-.068,4.1-.07,6.338C-370.713,289.447-372.115,290.27-373.355,291.006Zm16.776-1.958a55.322,55.322,0,0,0-11.133-7.209c.008-.291.016-.573.024-.844.029-.907.064-1.685.1-2.3a26.228,26.228,0,0,1,6.494,3.009c2.388,1.5,4.27,3.37,4.533,4.645a.687.687,0,0,0,.2.341,12.1,12.1,0,0,1,.264,2.485c0,.117-.015.231-.018.347C-356.253,289.371-356.409,289.215-356.579,289.048Zm-2.235-7.478c-.482-.361-.99-.714-1.517-1.056a27.108,27.108,0,0,0-7.072-3.227.536.536,0,0,0,.016-.076A11.989,11.989,0,0,1-358.814,281.57Zm-19.31,1.047a47.167,47.167,0,0,0-.426,6.474c0,1.689.084,3.372.244,4.956-.249.166-.438.3-.548.386a11.966,11.966,0,0,1-1.233-5.258A11.974,11.974,0,0,1-378.124,282.618Zm-.05,13.03a.7.7,0,0,0,.2-.114h0c.1-.08.359-.258.75-.509l.011-.007c1.452-.933,4.745-2.924,8.712-5.223,1.355.785,2.7,1.555,3.964,2.278a61.411,61.411,0,0,1-11.952,5.657A12.093,12.093,0,0,1-378.174,295.647Zm10.086,5.526a12.131,12.131,0,0,1-1.492-.1,30.158,30.158,0,0,0,11.255-5.511l.285.154A12,12,0,0,1-368.088,301.173Z" fill="#16b7ff"/>
  </g>
</svg>
